<?xml version="1.0" encoding="UTF-8"?>
<svg version="1.1" xmlns="http://www.w3.org/2000/svg" width="672" height="572">
<path d="M0 0 C221.76 0 443.52 0 672 0 C672 188.76 672 377.52 672 572 C450.24 572 228.48 572 0 572 C0 383.24 0 194.48 0 0 Z " fill="#ECECE7" transform="translate(0,0)"/>
<path d="M0 0 C2.07972347 0.01073028 4.15858359 0.00003353 6.23828125 -0.01269531 C33.80378322 -0.04561533 58.76716261 8.95068582 80.08203125 26.26074219 C80.96761719 26.96328125 81.85320312 27.66582031 82.765625 28.38964844 C104.06608307 45.5952461 115.92765212 74.61595342 119.08203125 101.26074219 C119.22663813 104.62577781 119.2359401 107.98741537 119.23974609 111.35522461 C119.24482681 112.34468582 119.24990753 113.33414703 119.25514221 114.35359192 C119.26580366 116.49191098 119.27444023 118.63024091 119.28126144 120.76857567 C119.29309318 124.1517907 119.31255357 127.53488055 119.3343811 130.91804504 C119.39587873 140.53345604 119.45014775 150.14885066 119.48339844 159.7644043 C119.50430797 165.65347166 119.53957069 171.54230454 119.58415604 177.43123817 C119.59833402 179.67472901 119.60704251 181.91826126 119.61021042 184.16179466 C119.61510301 187.29292886 119.63821511 190.42343599 119.66552734 193.55444336 C119.66252121 194.48284027 119.65951508 195.41123718 119.65641785 196.36776733 C119.71670361 201.00687002 119.76374459 203.74332032 123.08203125 207.26074219 C123.4744033 211.29955851 123.21471435 215.19179378 123.08203125 219.26074219 C127.04203125 219.26074219 131.00203125 219.26074219 135.08203125 219.26074219 C134.97890625 218.12636719 134.87578125 216.99199219 134.76953125 215.82324219 C134.80311902 209.4863488 137.77087942 204.80397621 141.94921875 200.20605469 C147.92946259 194.59812175 153.69180859 192.83294726 161.82421875 193.08105469 C169.25743414 193.67262546 174.75430544 195.90006137 180.08203125 201.26074219 C187.67667059 211.40889367 188.45063787 222.92340655 187.08203125 235.26074219 C185.93378833 239.04994381 184.36414043 242.04204484 182.08203125 245.26074219 C181.46328125 246.18886719 180.84453125 247.11699219 180.20703125 248.07324219 C178.28183228 250.05506465 176.83604307 250.98422055 174.49682617 252.33935547 C172.36647117 253.85185392 171.27044168 254.68332087 170.45327759 257.18768311 C170.24167165 259.54762954 170.24327431 261.82220366 170.3203125 264.19042969 C170.31750778 265.05781769 170.31470306 265.92520569 170.31181335 266.81887817 C170.30654481 269.59243029 170.34697704 272.36263167 170.39453125 275.13574219 C170.5428154 287.89044265 170.27336669 299.1101126 166.08203125 311.26074219 C165.79416748 312.10942871 165.50630371 312.95811523 165.2097168 313.83251953 C164.45486538 315.92298316 163.64030691 317.96618967 162.76953125 320.01074219 C162.47030762 320.72045166 162.17108398 321.43016113 161.86279297 322.16137695 C156.68887196 334.08359629 149.22301385 344.36771551 139.08203125 352.57324219 C135.11030095 355.91043569 132.49733049 359.83983238 129.64624023 364.14404297 C125.40840654 370.44637004 120.35418152 375.81683631 115.08203125 381.26074219 C114.23382813 382.14890625 113.385625 383.03707031 112.51171875 383.95214844 C92.61876255 404.37516773 63.93211962 423.51453668 35.08203125 427.26074219 C34.09203125 427.26074219 33.10203125 427.26074219 32.08203125 427.26074219 C32.08203125 446.40074219 32.08203125 465.54074219 32.08203125 485.26074219 C49.68738533 485.10296093 49.68738533 485.10296093 67.29223633 484.90039062 C69.5203372 484.88869414 71.74844671 484.8785046 73.9765625 484.87011719 C75.10783569 484.84965332 76.23910889 484.82918945 77.40466309 484.80810547 C89.71476609 484.80277007 100.48694533 488.72340658 109.3125 497.47167969 C118.71834174 507.78555351 121.36036572 516.86659221 121.578125 530.74511719 C120.98916679 534.91883676 119.76360479 537.0371986 117.08203125 540.26074219 C113.26567144 543.01453755 108.87106717 542.5449313 104.36526489 542.52816772 C103.47586617 542.53269884 102.58646745 542.53722995 101.67011726 542.54189837 C98.68383426 542.55457919 95.69773277 542.55291963 92.71142578 542.55126953 C90.57281255 542.55725246 88.43420148 542.56405746 86.29559326 542.57162476 C80.48155158 542.58931547 74.66756874 542.59398142 68.85350275 542.59525633 C64.00250051 542.59715393 59.15151201 542.60450983 54.30051506 542.61160052 C42.85707458 542.6278936 31.41366558 542.63276861 19.97021484 542.63134766 C8.15954436 542.63014584 -3.6509435 542.65125369 -15.46156776 542.68283498 C-25.5966989 542.70897187 -35.7317703 542.71971604 -45.8669349 542.71843684 C-51.92240128 542.71792646 -57.97770541 542.72365149 -64.03313828 542.74479294 C-69.72785492 542.76413175 -75.42225377 542.7643295 -81.11698151 542.74975967 C-83.20756875 542.7476651 -85.29817565 542.7524109 -87.3887291 542.76448059 C-90.24193985 542.77988705 -93.09404856 542.77065522 -95.94723511 542.75521851 C-96.77525631 542.76550563 -97.60327751 542.77579276 -98.45639026 542.78639162 C-103.72506922 542.72336431 -106.74233767 541.76305427 -110.91796875 538.26074219 C-114.82586373 531.4360034 -113.55714594 521.95768088 -111.85546875 514.57324219 C-110.01526219 508.63792807 -106.83127995 504.03187735 -102.91796875 499.26074219 C-102.39332031 498.61105469 -101.86867188 497.96136719 -101.328125 497.29199219 C-95.88188581 491.21990155 -86.70270501 485.62879497 -78.43122864 485.1025238 C-77.44305649 485.08697952 -76.45488434 485.07143524 -75.43676758 485.05541992 C-74.300177 485.03523804 -73.16358643 485.01505615 -71.99255371 484.9942627 C-70.79876099 484.97778687 -69.60496826 484.96131104 -68.375 484.94433594 C-67.27716187 484.92568481 -66.17932373 484.90703369 -65.04821777 484.88781738 C-60.94238426 484.81945523 -56.83641667 484.7593477 -52.73046875 484.69824219 C-43.55234375 484.55386719 -34.37421875 484.40949219 -24.91796875 484.26074219 C-24.58796875 465.45074219 -24.25796875 446.64074219 -23.91796875 427.26074219 C-27.21796875 426.93074219 -30.51796875 426.60074219 -33.91796875 426.26074219 C-59.28635033 418.8775979 -82.26213204 404.43426584 -101.4609375 386.52636719 C-103.43954836 384.70189295 -105.44384373 383.0025422 -107.54296875 381.32324219 C-114.21441813 375.63897625 -119.29221674 368.34647768 -123.98046875 361.01074219 C-126.86940053 356.56315749 -129.76091766 353.3992964 -133.8515625 350.07714844 C-149.44041183 336.37428466 -159.43017587 314.70990823 -161.91796875 294.26074219 C-162.10971784 291.03018209 -162.14646564 287.80899181 -162.1484375 284.57324219 C-162.14955032 283.73357407 -162.15066315 282.89390594 -162.15180969 282.02879333 C-162.14460643 278.55407523 -162.12199466 275.08100099 -162.05200195 271.60693359 C-161.43681507 261.75685499 -161.43681507 261.75685499 -164.63378906 252.88623047 C-166.6668616 251.39764748 -168.64483815 250.33197791 -170.91796875 249.26074219 C-172.94140625 247.06542969 -172.94140625 247.06542969 -174.29296875 245.13574219 C-174.75445312 244.49378906 -175.2159375 243.85183594 -175.69140625 243.19042969 C-181.09841662 234.68385924 -180.97498718 223.371061 -179.29296875 213.63574219 C-177.34665181 205.98753901 -172.39360883 199.62188755 -165.91796875 195.26074219 C-158.37118565 192.15324327 -150.16799451 192.14141452 -142.54296875 194.94824219 C-136.08990662 197.85824647 -132.55806422 202.28058534 -128.91796875 208.26074219 C-127.63478983 212.11027895 -127.85153238 215.20812354 -127.91796875 219.26074219 C-123.95796875 219.26074219 -119.99796875 219.26074219 -115.91796875 219.26074219 C-116.00046875 217.36324219 -116.08296875 215.46574219 -116.16796875 213.51074219 C-116.30859375 210.27636719 -116.30859375 210.27636719 -115.91796875 207.26074219 C-115.26018936 206.73513702 -114.60240997 206.20953186 -113.92469788 205.66799927 C-110.83817551 201.96543038 -111.36963982 198.40805312 -111.41967773 193.72900391 C-111.41415894 192.76246887 -111.40864014 191.79593384 -111.4029541 190.80010986 C-111.39362612 188.69943141 -111.39353549 186.59869642 -111.40154839 184.49801254 C-111.41418833 181.15717292 -111.402873 177.81715868 -111.38551331 174.47634888 C-111.35329913 167.36277619 -111.35378784 160.24937356 -111.35546875 153.13574219 C-111.35295847 144.93549844 -111.33674733 136.73550275 -111.2990284 128.53534317 C-111.28930877 125.27308715 -111.29785283 122.01123964 -111.307724 118.74899292 C-111.29113277 103.10631344 -110.23080505 87.81321154 -104.73046875 73.01074219 C-104.42786133 72.17849121 -104.12525391 71.34624023 -103.81347656 70.48876953 C-95.20318664 47.63228345 -79.12577507 29.54530169 -58.91796875 16.26074219 C-58.08072266 15.70507568 -58.08072266 15.70507568 -57.2265625 15.13818359 C-40.0211773 3.92722781 -20.31452482 -0.1243356 0 0 Z " fill="#202121" transform="translate(329.91796875,8.7392578125)"/>
<path d="M0 0 C1.3898773 0.43598455 2.78044933 0.86976382 4.171875 1.30078125 C11.53317945 3.64509709 18.54381382 6.49046754 25.61328125 9.59375 C30.96004348 11.81385889 36.44166615 13.40299274 42 15 C43.37944745 15.41487141 44.75832734 15.83163333 46.13671875 16.25 C49.75033806 17.34296306 53.37267826 18.40044345 57.00439453 19.43164062 C58.78581962 19.93900026 60.56314179 20.46071547 62.33984375 20.984375 C68.73416525 22.69382791 74.847924 23.29708384 81.4375 23.375 C82.19538818 23.38893799 82.95327637 23.40287598 83.73413086 23.41723633 C88.58713949 23.37575762 91.70771328 22.45546863 96 20 C99.26741939 19.4554301 100.50583342 19.71390356 103.375 21.375 C106.72009761 26.77861922 103.97035977 34.51995425 102.64233398 40.46533203 C100.22069155 51.45243463 99.26499154 62.43194154 98.4375 73.625 C95.78460861 108.93095401 87.87759936 135.30783785 60.2578125 159.34375 C54.20021895 164.39987143 47.64333025 168.75943502 41 173 C40.42024414 173.37253906 39.84048828 173.74507812 39.24316406 174.12890625 C24.06099177 183.73630541 7.77830783 189.72843163 -10 192 C-11.10859375 192.18046875 -12.2171875 192.3609375 -13.359375 192.546875 C-49.24921624 197.01385095 -83.13364153 185.05893764 -111.35498047 163.31787109 C-116.14943494 159.4768997 -120.5845912 155.2648835 -125 151 C-125.825 150.2265625 -126.65 149.453125 -127.5 148.65625 C-135.11218878 141.35266346 -140.47734756 133.35124114 -145.25 124 C-145.57943604 123.3598999 -145.90887207 122.7197998 -146.24829102 122.06030273 C-150.91057676 112.61056122 -152.55907547 103.21948355 -153.5 92.78515625 C-153.62181641 91.53480087 -153.74363281 90.2844455 -153.86914062 88.99620056 C-154.19053001 85.68827197 -154.50398183 82.37981726 -154.8125 79.07067871 C-155.36225872 73.18260538 -155.92763705 67.29607041 -156.5 61.41015625 C-156.62084961 60.15627106 -156.74169922 58.90238586 -156.86621094 57.61050415 C-157.66423937 49.59919569 -158.67920823 41.6652068 -160.17382812 33.75221252 C-160.93084863 29.55785196 -161.10823355 26.13779007 -160 22 C-158 20 -158 20 -155.25 19.6875 C-152 20 -152 20 -149.17578125 21.4921875 C-135.30559216 28.07754173 -112.94817069 19.96199535 -99.4375 15.25 C-91.44462181 12.39373227 -83.58221183 9.245186 -75.73413086 6.01635742 C-48.50881983 -4.99609739 -28.1118724 -9.28553977 0 0 Z " fill="#F9F9F7" transform="translate(362,227)"/>
<path d="M0 0 C0.1953125 2.01822917 0.390625 4.03645833 0.5859375 6.0546875 C0.86374749 8.22668245 0.86374749 8.22668245 3 10 C7.79834561 10.54814031 7.79834561 10.54814031 11.9375 8.5 C12.288125 8.005 12.63875 7.51 13 7 C17.59306496 8.4859916 20.43569245 10.85014682 24 14 C23.195625 14.639375 22.39125 15.27875 21.5625 15.9375 C18.32348401 18.20819704 18.32348401 18.20819704 17.6875 21.8125 C17.75901108 25.03085641 17.75901108 25.03085641 19.5625 27.4375 C22.01746545 29.31201155 22.01746545 29.31201155 25.5625 29.0625 C29.14988251 28.32021123 29.14988251 28.32021123 30.9375 25.4375 C31.288125 24.633125 31.63875 23.82875 32 23 C37.80205656 28.64524422 37.80205656 28.64524422 40 32 C40 32.66 40 33.32 40 34 C39.34 34.4125 38.68 34.825 38 35.25 C35.68364818 36.89444839 35.68364818 36.89444839 35.5625 40 C36.04779917 43.32776576 36.38017795 44.03513346 39 46 C41.28330101 46.36146457 41.28330101 46.36146457 43.6875 46.1875 C44.49574219 46.16042969 45.30398438 46.13335937 46.13671875 46.10546875 C46.75160156 46.07066406 47.36648438 46.03585938 48 46 C55.39746702 61.95900246 55.41818607 77.7553579 55.29296875 94.99609375 C55.2873618 97.28393778 55.28309691 99.57178545 55.28010559 101.8596344 C55.26874336 107.83214559 55.23935187 113.80443204 55.20599365 119.77685547 C55.17510527 125.89091961 55.16156043 132.00502066 55.14648438 138.11914062 C55.11447271 150.07952491 55.06338267 162.03974364 55 174 C47.376446 174.02318164 39.75289566 174.0409448 32.12931442 174.05181217 C28.58928939 174.05702825 25.04928849 174.06410276 21.50927734 174.07543945 C17.43847422 174.08839423 13.36769641 174.09323876 9.296875 174.09765625 C8.02696716 174.10281754 6.75705933 174.10797882 5.44866943 174.11329651 C3.67728607 174.11340981 3.67728607 174.11340981 1.87011719 174.11352539 C0.83087097 174.115746 -0.20837524 174.11796661 -1.27911377 174.12025452 C-3.68889498 174.01374985 -5.70036807 173.69407081 -8 173 C-8 172.34 -8 171.68 -8 171 C-7.01 170.34 -6.02 169.68 -5 169 C-4.56172799 167.09542071 -4.56172799 167.09542071 -4.6875 165 C-4.69136719 164.29875 -4.69523437 163.5975 -4.69921875 162.875 C-4.85087054 160.7583423 -4.85087054 160.7583423 -7 159 C-11.62307869 158.56706829 -11.62307869 158.56706829 -15.9375 160 C-17.67278693 163.26642246 -17.17982715 166.34351452 -17 170 C-24.37653219 169.24984418 -31.67831776 168.16558465 -39 167 C-39.28875 165.88625 -39.5775 164.7725 -39.875 163.625 C-40.69241329 159.99708908 -40.69241329 159.99708908 -43 158 C-46.53314892 157.53915449 -48.3283861 157.54620682 -51.3125 159.5625 C-53.45925769 162.66337222 -53.5636661 165.2976421 -54 169 C-69.44135095 174.88033586 -84.7466017 174.6117997 -101.04968262 174.34332275 C-104.54989218 174.29133741 -108.05029351 174.2691631 -111.55078125 174.24414062 C-118.36764325 174.19118805 -125.18376636 174.10633637 -132 174 C-132.0697558 160.55152382 -132.12294069 147.10309125 -132.15543652 133.65447044 C-132.17103914 127.40857898 -132.19217811 121.16281202 -132.22631836 114.91699219 C-132.25910521 108.88044652 -132.27689357 102.84402002 -132.28463173 96.80739212 C-132.29014071 94.51350659 -132.30089763 92.21962698 -132.31719017 89.92579269 C-132.50881957 61.80755629 -126.08537189 38.46669583 -106 18 C-75.88898529 -10.31921268 -37.39132644 -13.59196205 0 0 Z " fill="#5F6468" transform="translate(372,38)"/>
<path d="M0 0 C2.64 1.98 5.28 3.96 8 6 C6.7934375 6.9590625 6.7934375 6.9590625 5.5625 7.9375 C2.32348401 10.20819704 2.32348401 10.20819704 1.6875 13.8125 C1.75901108 17.03085641 1.75901108 17.03085641 3.5625 19.4375 C6.01746545 21.31201155 6.01746545 21.31201155 9.5625 21.0625 C13.14988251 20.32021123 13.14988251 20.32021123 14.9375 17.4375 C15.288125 16.633125 15.63875 15.82875 16 15 C21.80205656 20.64524422 21.80205656 20.64524422 24 24 C24 24.66 24 25.32 24 26 C23.34 26.4125 22.68 26.825 22 27.25 C19.68364818 28.89444839 19.68364818 28.89444839 19.5625 32 C20.04779917 35.32776576 20.38017795 36.03513346 23 38 C25.28330101 38.36146457 25.28330101 38.36146457 27.6875 38.1875 C28.49574219 38.16042969 29.30398438 38.13335937 30.13671875 38.10546875 C31.05904297 38.05326172 31.05904297 38.05326172 32 38 C39.39746702 53.95900246 39.41818607 69.7553579 39.29296875 86.99609375 C39.2873618 89.28393778 39.28309691 91.57178545 39.28010559 93.8596344 C39.26874336 99.83214559 39.23935187 105.80443204 39.20599365 111.77685547 C39.17510527 117.89091961 39.16156043 124.00502066 39.14648438 130.11914062 C39.11447267 142.07954086 39.06177669 154.03971644 39 166 C26.13 166 13.26 166 0 166 C0.01740234 161.36710937 0.01740234 161.36710937 0.03515625 156.640625 C0.04300408 153.57552187 0.04904807 150.51041996 0.05493164 147.4453125 C0.05989241 145.35090618 0.06666313 143.25650318 0.07543945 141.16210938 C0.08787473 138.11327277 0.09331064 135.06448275 0.09765625 132.015625 C0.10281754 131.11265686 0.10797882 130.20968872 0.11329651 129.27935791 C0.11380609 123.07619024 -0.15258013 116.91348935 -0.49780273 110.72241211 C-1.11785292 99.28890171 -1.14544643 87.87339733 -1.1328125 76.42578125 C-1.13348804 74.23715708 -1.13446013 72.04853298 -1.13571167 69.85990906 C-1.13717097 65.32285838 -1.13508777 60.78582763 -1.13037109 56.2487793 C-1.12460959 50.42246365 -1.1280039 44.59619342 -1.13394356 38.76987934 C-1.13754221 34.27395784 -1.13641494 29.77804729 -1.13381577 25.28212547 C-1.13314789 23.13102399 -1.13397006 20.97992151 -1.13629532 18.82882118 C-1.1388173 15.84719784 -1.13499073 12.86565081 -1.12939453 9.8840332 C-1.13141876 8.99332626 -1.13344299 8.10261932 -1.13552856 7.18492126 C-1.11427626 1.11427626 -1.11427626 1.11427626 0 0 Z " fill="#494F55" transform="translate(388,46)"/>
<path d="M0 0 C2.375 1.375 2.375 1.375 4 4 C4.01525689 9.55668527 2.8490988 15.06282196 1.64233398 20.46533203 C-0.77930845 31.45243463 -1.73500846 42.43194154 -2.5625 53.625 C-5.21539139 88.93095401 -13.12240064 115.30783785 -40.7421875 139.34375 C-46.79978105 144.39987143 -53.35666975 148.75943502 -60 153 C-60.57975586 153.37253906 -61.15951172 153.74507812 -61.75683594 154.12890625 C-76.93900823 163.73630541 -93.22169217 169.72843163 -111 172 C-112.10859375 172.18046875 -113.2171875 172.3609375 -114.359375 172.546875 C-150.24921624 177.01385095 -184.13364153 165.05893764 -212.35498047 143.31787109 C-217.14900744 139.47724218 -221.58862809 135.26846831 -226 131 C-227.34191406 129.71802734 -227.34191406 129.71802734 -228.7109375 128.41015625 C-234.85705253 122.42884241 -234.85705253 122.42884241 -236 119 C-231.91180855 119.73298382 -228.40766862 121.68799448 -224.75 123.5625 C-223.30600584 124.29300088 -221.86199496 125.02346872 -220.41796875 125.75390625 C-219.31461182 126.31489014 -219.31461182 126.31489014 -218.18896484 126.88720703 C-212.14362969 129.96044344 -206.08079391 132.99755327 -200 136 C-199.32356445 136.33531738 -198.64712891 136.67063477 -197.95019531 137.01611328 C-174.54550065 148.55262669 -152.03926796 155.45066516 -125.8125 155.375 C-125.09588196 155.37445618 -124.37926392 155.37391235 -123.64093018 155.37335205 C-93.60423817 155.26904929 -70.62637794 145.82151975 -47.72509766 126.45068359 C-46.31642089 125.26608731 -44.88580574 124.10762083 -43.44921875 122.95703125 C-31.00097366 112.78089303 -23.93640201 96.492052 -21 81 C-20.8443457 80.26426758 -20.68869141 79.52853516 -20.52832031 78.77050781 C-17.25857023 63.18244972 -16.28711424 47.66925115 -15.77124023 31.79370117 C-14.94537843 8.5120768 -14.94537843 8.5120768 -10.51538086 3.22973633 C-7.17277991 0.51720516 -4.33509779 -0.65026467 0 0 Z " fill="#E2E2E1" transform="translate(463,247)"/>
<path d="M0 0 C1.5238049 -0.00350735 3.04760611 -0.00917283 4.57139587 -0.01681519 C8.68309373 -0.03098362 12.79411642 -0.01408115 16.90574956 0.00946999 C21.22300581 0.0296788 25.54023674 0.0236943 29.85752869 0.0213623 C37.10435018 0.02141576 44.35090996 0.04110576 51.59765625 0.07324219 C59.9592844 0.11014393 68.32057019 0.11891457 76.68226916 0.11194468 C84.74901042 0.10562588 92.81563511 0.1164185 100.88235283 0.13591003 C104.30517687 0.14405491 107.72794109 0.14679898 111.150774 0.1452179 C115.18518352 0.14433489 119.2192709 0.15866612 123.25359535 0.18444443 C124.72852262 0.19156772 126.20348425 0.19370848 127.67842484 0.19032669 C146.78035687 0.15490179 146.78035687 0.15490179 154.06225586 7.05273438 C154.68874023 7.62894531 155.31522461 8.20515625 155.96069336 8.79882812 C160.68725586 13.77134297 160.68725586 13.77134297 160.68725586 17.61523438 C96.66725586 17.61523438 32.64725586 17.61523438 -33.31274414 17.61523438 C-32.36334953 13.81765593 -31.78489165 12.54096259 -29.37524414 9.67773438 C-28.58827148 8.70513672 -28.58827148 8.70513672 -27.78540039 7.71289062 C-19.26040961 0.48078944 -10.8361965 -0.1056433 0 0 Z " fill="#474E52" transform="translate(270.312744140625,512.384765625)"/>
<path d="M0 0 C3.12929176 0.67311997 5.79865827 1.75540785 8.6875 3.125 C63.66540089 28.31722352 113.73633817 36.14116635 171.3125 14.875 C177.99558003 12.38610575 184.61440294 9.82085801 191.10498047 6.86230469 C192.99542561 6.00208152 194.89963245 5.18396159 196.8125 4.375 C199.87243176 3.11171698 199.87243176 3.11171698 202.1875 1.8125 C204 1 204 1 208 1 C206.50667079 5.5108841 202.92340464 7.30402046 199.0625 9.625 C198.35593262 10.0566748 197.64936523 10.48834961 196.92138672 10.93310547 C188.48727192 16.01418576 179.81744088 20.62328645 171 25 C170.27087402 25.36367676 169.54174805 25.72735352 168.79052734 26.10205078 C152.75669953 33.97901856 134.22852933 40.95572907 116.2265625 41.30859375 C115.09812927 41.33141922 115.09812927 41.33141922 113.94689941 41.35470581 C97.33865928 41.62795466 82.16696669 41.26486751 66.28369141 35.78613281 C64.19490248 35.06709279 62.10114859 34.42186449 59.98046875 33.8046875 C40.09820476 27.74896066 20.96201253 17.91225308 4 6 C3.22785156 5.48953125 2.45570313 4.9790625 1.66015625 4.453125 C1.11230469 3.97359375 0.56445312 3.4940625 0 3 C0 2.01 0 1.02 0 0 Z " fill="#94979B" transform="translate(230,333)"/>
<path d="M0 0 C0.55599884 0.07713226 1.11199768 0.15426453 1.68484497 0.23373413 C16.57598103 2.28134813 31.47845733 3.92480992 46.4453125 5.30761719 C49.89376086 5.62673613 53.34141976 5.95355326 56.7890625 6.28125 C73.78389218 7.88141945 90.66779652 9.19874865 107.75 9.1875 C108.40309143 9.18756042 109.05618286 9.18762085 109.72906494 9.18768311 C123.07168466 9.17042643 136.31699111 8.36513404 149.61425781 7.26904297 C152.81197706 7.01494096 156.00951564 6.79896166 159.2109375 6.59765625 C172.9436945 5.6904734 186.4350137 3.87801986 200.01074219 1.67651367 C200.69588394 1.56664627 201.3810257 1.45677887 202.08692932 1.34358215 C203.95413369 1.04278274 205.82024901 0.73524514 207.6862793 0.42724609 C210.83551855 0.021207 213.82927767 -0.07900421 217 0 C213.2671409 4.26268427 208.24842755 5.28522787 203 7 C201.88496094 7.3815625 200.76992188 7.763125 199.62109375 8.15625 C155.38220868 22.31269322 106.43029845 24.90993635 60.75 17.8125 C59.80956848 17.66669495 58.86913696 17.52088989 57.90020752 17.3706665 C12.19536975 10.1302465 12.19536975 10.1302465 0 2 C0 1.34 0 0.68 0 0 Z " fill="#93969A" transform="translate(226,300)"/>
<path d="M0 0 C2.21217911 0.75408369 4.42442163 1.50798134 6.63671875 2.26171875 C11.02744978 3.76667773 15.40689455 5.29974966 19.78125 6.8515625 C25.18016849 8.74980063 30.62610393 10.44763105 36.10253906 12.10693359 C39.48121835 13.14832294 42.79524605 14.31252148 46.125 15.5 C52.9540536 17.82873585 59.81310797 19.32979978 66.91845703 20.56835938 C68.96571103 20.95038894 70.98751551 21.46418128 73 22 C73.33 22.99 73.66 23.98 74 25 C64.18181353 25.39490046 54.97341156 24.26352058 45.375 22.375 C44.32268692 22.17342285 44.32268692 22.17342285 43.24911499 21.96777344 C32.66874258 19.93377419 22.48266508 17.29223744 12.29980469 13.76757812 C7.88581252 12.2943731 3.41092915 11.02868502 -1.0625 9.75 C-2.33033325 9.38068359 -2.33033325 9.38068359 -3.6237793 9.00390625 C-22.37154876 3.64581483 -40.3149549 3.09440087 -59 9 C-61.40715369 9.73438003 -63.81474821 10.46731587 -66.22265625 11.19921875 C-78.72843581 14.99838776 -78.72843581 14.99838776 -91.14379883 19.07763672 C-93.48334531 19.83315485 -95.64813446 20.39398553 -98.06640625 20.78125 C-99.15550293 20.95950317 -99.15550293 20.95950317 -100.26660156 21.14135742 C-101.02424805 21.25970947 -101.78189453 21.37806152 -102.5625 21.5 C-103.75504395 21.69009644 -103.75504395 21.69009644 -104.97167969 21.8840332 C-106.57280316 22.13878673 -108.17419993 22.39182909 -109.77587891 22.64306641 C-111.71205915 22.95379039 -113.6436576 23.29280458 -115.57421875 23.63671875 C-123.4307486 24.99929035 -131.03474104 25.21495451 -139 25 C-138.505 23.515 -138.505 23.515 -138 22 C-136.01660156 21.31152344 -136.01660156 21.31152344 -133.390625 20.859375 C-132.41843018 20.67947021 -131.44623535 20.49956543 -130.44458008 20.31420898 C-129.39036865 20.12802002 -128.33615723 19.94183105 -127.25 19.75 C-116.19517452 17.63586067 -105.82489543 14.52905156 -95.23291016 10.77392578 C-92.18161503 9.71634809 -89.09637712 8.79093431 -86 7.875 C-80.68897924 6.27077136 -75.56444564 4.3241732 -70.40234375 2.296875 C-45.69422572 -7.12114473 -25.17620171 -8.76682804 0 0 Z " fill="#94979B" transform="translate(366,253)"/>
<path d="M0 0 C5.61 0 11.22 0 17 0 C17 18.15 17 36.3 17 55 C11.39 55 5.78 55 0 55 C0 36.85 0 18.7 0 0 Z " fill="#464D51" transform="translate(325,439)"/>
<path d="M0 0 C10.96557566 -0.41641427 18.05682427 0.62633837 26.2734375 8.18359375 C31 13.1561086 31 13.1561086 31 16 C20.77 16 10.54 16 0 16 C0 10.72 0 5.44 0 0 Z " fill="#3C4044" transform="translate(400,513)"/>
<path d="M0 0 C3.6495384 0.69884778 4.66097309 1.66279649 6.9375 4.5625 C7.39160156 7.40332031 7.39160156 7.40332031 7.328125 10.640625 C7.31523437 11.80078125 7.30234375 12.9609375 7.2890625 14.15625 C7.25554687 15.3628125 7.22203125 16.569375 7.1875 17.8125 C7.16945312 19.03453125 7.15140625 20.2565625 7.1328125 21.515625 C7.085681 24.53204078 7.01989413 27.54687491 6.9375 30.5625 C5.33370712 29.9498172 3.73266587 29.3299285 2.1328125 28.70703125 C1.24094238 28.36260986 0.34907227 28.01818848 -0.56982422 27.66333008 C-3.30094139 26.45719812 -5.50451114 25.19642742 -7.28125 22.734375 C-9.20029882 17.39941929 -9.08852354 11.06077908 -8.0625 5.5625 C-5.43836295 2.28778655 -4.15761143 0.76364292 0 0 Z " fill="#5E6367" transform="translate(177.0625,219.4375)"/>
<path d="M0 0 C4.57543103 1.24784483 4.57543103 1.24784483 6.4375 3.9375 C8.24198184 9.35094551 8.43395593 15.59582856 6.1875 20.875 C2.88132313 24.7715656 0.43191074 27.40075823 -4.5625 28.9375 C-5.5525 28.9375 -6.5425 28.9375 -7.5625 28.9375 C-7.67864929 24.8544058 -7.74973457 20.77173623 -7.8125 16.6875 C-7.84601563 15.52863281 -7.87953125 14.36976563 -7.9140625 13.17578125 C-7.92695313 12.06074219 -7.93984375 10.94570312 -7.953125 9.796875 C-7.97407227 8.77045898 -7.99501953 7.74404297 -8.01660156 6.68652344 C-7.19644465 1.72148751 -4.93517503 -0.08658202 0 0 Z " fill="#4D5359" transform="translate(491.5625,220.0625)"/>
<path d="M0 0 C0.33 0 0.66 0 1 0 C1.1007027 4.28257592 1.17230689 8.56448105 1.21972656 12.84790039 C1.23954342 14.2975671 1.26660535 15.74715728 1.30175781 17.1965332 C1.61630394 30.52311273 -0.55022387 41.73605319 -6 54 C-6.33 54 -6.66 54 -7 54 C-7.18114061 44.41784468 -6.70529212 35.15026802 -5.625 25.625 C-5.49867188 24.41972656 -5.37234375 23.21445312 -5.2421875 21.97265625 C-3.48629908 5.9765127 -3.48629908 5.9765127 0 0 Z " fill="#DCDBD9" transform="translate(481,270)"/>
<path d="M0 0 C6.31161619 6.31161619 5.77788687 19.49801046 6.50805664 28.08276367 C6.6882441 30.19622771 6.88302124 32.30797024 7.08007812 34.41992188 C7.70521383 41.29701949 8.16135264 48.09257013 8 55 C-0.31397429 46.68602571 -0.4001343 30.83199803 -0.41748047 19.79516602 C-0.3733463 13.19391728 -0.23163228 6.59736237 0 0 Z " fill="#ECEDEA" transform="translate(186,270)"/>
<path d="M0 0 C3.42641601 1.16643949 4.94029949 1.96425523 6.9375 5 C7 8.5625 7 8.5625 5.9375 12 C3.11458663 14.58094937 1.63227972 15.01389559 -2.1875 14.9375 C-5.0625 14 -5.0625 14 -6.9375 12.3125 C-8.43544243 9.23339611 -8.62633235 7.38299409 -8.0625 4 C-5.41006048 0.95749584 -4.06863676 0 0 0 Z " fill="#202021" transform="translate(415.0625,141)"/>
<path d="M0 0 C2.875 2.0625 2.875 2.0625 5 5 C5.06625411 8.8427383 4.81899419 10.99200716 2.375 14 C-1.14974145 15.48410166 -3.36810976 15.05654989 -7 14 C-9.58094937 11.17708663 -10.01389559 9.69477972 -9.9375 5.875 C-9 3 -9 3 -7.25 1.125 C-4.45339201 -0.27330399 -3.08596334 -0.60213919 0 0 Z " fill="#1F2021" transform="translate(328,88)"/>
<path d="M0 0 C4.45144991 1.5483304 4.45144991 1.5483304 5.875 4 C6.41258847 7.57645664 6.5317088 10.76384227 4.8125 14 C1.69590489 15.60856522 -0.68762469 15.42213381 -4.125 15 C-6.5625 13.375 -6.5625 13.375 -8.125 11 C-8.6875 8.0625 -8.6875 8.0625 -8.125 5 C-5.57998626 1.48189277 -4.43334243 0 0 0 Z " fill="#1E1F20" transform="translate(326.125,52)"/>
<path d="M0 0 C2 1 2 1 3 3 C3.51981506 6.56444611 3.63102777 9.73794446 2 13 C-1.26806626 14.63403313 -4.44296053 14.78551288 -8 14 C-10.53021146 11.31165033 -10.93793474 9.5172105 -11.375 5.875 C-11 3 -11 3 -10 1.125 C-6.77469932 -0.68923163 -3.60489139 -0.52571333 0 0 Z " fill="#1F2020" transform="translate(401,196)"/>
<path d="M0 0 C2.68840669 2.41267267 3.7889607 4.03859873 4.5625 7.5625 C4 10 4 10 1.875 12.3125 C-1.49892681 14.29284835 -3.15452292 14.65454929 -7 14 C-9.375 12.375 -9.375 12.375 -11 10 C-11.60605429 6.36367425 -11.47161336 4.71685231 -9.4375 1.625 C-6.04129157 -0.63913895 -3.99900698 -0.64269755 0 0 Z " fill="#1F2020" transform="translate(293,89)"/>
<path d="M0 0 C4.36689189 1.42398649 4.36689189 1.42398649 5.875 3.9375 C6.37530235 7.86844707 6.4746142 10.0380787 4.25 13.375 C1.15814769 15.40911336 -0.48867425 15.54355429 -4.125 14.9375 C-6.5 13.375 -6.5 13.375 -8.125 10.9375 C-8.6875 7.4375 -8.6875 7.4375 -8.125 3.9375 C-5.45043116 0.79094842 -4.15592269 -0.08311845 0 0 Z " fill="#1F2020" transform="translate(415.125,106.0625)"/>
<path d="M0 0 C2.375 0.9375 2.375 0.9375 4 3 C4.44606903 6.04442112 4.49597707 8.96069865 4 12 C1.59653621 14.40346379 0.86099805 14.32083747 -2.4375 14.375 C-6.66196305 14.26633214 -6.66196305 14.26633214 -9.0625 12.375 C-10.27652573 9.29946814 -10.47842171 7.28060601 -10 4 C-7.20125452 -0.09047416 -4.83066808 -0.70447243 0 0 Z " fill="#1F2021" transform="translate(399,88)"/>
<path d="M0 0 C2.5 1.5625 2.5 1.5625 4 4 C4 7.77684879 3.78395245 10.03513544 1.375 13 C-2.11581787 14.46981805 -4.39148956 13.98413921 -8 13 C-10 11.375 -10 11.375 -11 9 C-10.875 5.375 -10.875 5.375 -10 2 C-6.2794164 -0.48038907 -4.40203429 -0.46337203 0 0 Z " fill="#202021" transform="translate(257,196)"/>
<path d="M0 0 C3.04569423 2.31737605 4.73181298 3.77825913 5.5625 7.5625 C4.79326562 10.89584898 3.81374263 12.05202434 1 14 C-2.97487617 14.56783945 -5.06489221 14.62340519 -8.4375 12.375 C-10.47161336 9.28314769 -10.60605429 7.63632575 -10 4 C-7.2247536 -0.05612936 -4.80517165 -0.88258255 0 0 Z " fill="#202021" transform="translate(417,178)"/>
<path d="M0 0 C1.875 0.30859375 1.875 0.30859375 3.875 1.30859375 C5.50432095 4.56723565 5.40173518 7.74756719 4.875 11.30859375 C3.8125 13.30859375 3.8125 13.30859375 1.875 14.30859375 C-2.05594707 14.8088961 -4.2255787 14.90820795 -7.5625 12.68359375 C-9.58432313 9.6104226 -9.65255517 7.92611494 -9.125 4.30859375 C-7.22735706 -0.19830824 -4.46860694 -0.27107358 0 0 Z " fill="#1E1E1F" transform="translate(345.125,34.69140625)"/>
<path d="M0 0 C2.5 2.125 2.5 2.125 4 5 C4 8.50732933 3.6345092 10.2434698 1.375 12.9375 C-2.11319754 14.49800943 -4.36432898 13.99154664 -8 13 C-10 11.375 -10 11.375 -11 9 C-10.875 5.375 -10.875 5.375 -10 2 C-6.26744552 -0.48836965 -4.41559065 -0.54226552 0 0 Z " fill="#1F2021" transform="translate(275,72)"/>
<path d="M0 0 C2.68840669 2.41267267 3.7889607 4.03859873 4.5625 7.5625 C4 10 4 10 1.875 12.3125 C-1.5129233 14.30106368 -3.14257011 14.73865679 -7 14 C-9.62846098 11.57904909 -10.81388233 9.95385308 -11.5 6.4375 C-10.20671315 0.13272659 -5.8617679 -0.94206984 0 0 Z " fill="#202121" transform="translate(293,54)"/>
<path d="M0 0 C1.9375 1.125 1.9375 1.125 3 3 C3.36248449 6.38318857 3.58433618 8.86784865 2 11.9375 C-1.24370507 13.66071832 -4.4161041 13.52265149 -8 13 C-10 12 -10 12 -11 10 C-11.45446313 7.23870504 -11.50436498 4.75681313 -11 2 C-7.94260267 -2.03576448 -4.55750868 -1.16009312 0 0 Z " fill="#202021" transform="translate(276,107)"/>
<path d="M0 0 C4.91511194 1.34048507 4.91511194 1.34048507 6.4375 3.9375 C6.9375 6.8125 6.9375 6.8125 6.4375 9.9375 C4.3125 12.875 4.3125 12.875 1.4375 14.9375 C-1.79671175 14.9375 -3.67627619 14.46923428 -6.4375 12.8125 C-8.26349685 9.76917192 -7.98710581 7.39500445 -7.5625 3.9375 C-5.29401339 0.30792142 -4.30870043 -0.07559124 0 0 Z " fill="#1F2020" transform="translate(343.5625,70.0625)"/>
<path d="M0 0 C2.375 1.625 2.375 1.625 4 4 C4.60605429 7.63632575 4.47161336 9.28314769 2.4375 12.375 C-0.8994213 14.5996142 -3.06905293 14.50030235 -7 14 C-8.9375 13 -8.9375 13 -10 11 C-10.45982357 8.24105859 -10.51068558 5.75425931 -10 3 C-7.21052771 -0.43319666 -4.246332 -0.61925675 0 0 Z " fill="#1E1F20" transform="translate(364,89)"/>
<path d="M0 0 C2.99052865 0.09260289 4.05183828 0.3303892 6.6875 1.9375 C8.125 4.375 8.125 4.375 8.125 7.9375 C7.125 11.375 7.125 11.375 5.5 13.375 C2.07723815 14.81616288 -0.32105372 14.23057966 -3.875 13.375 C-5.875 11.375 -5.875 11.375 -6.140625 9.28125 C-6.13289063 8.09015625 -6.13289063 8.09015625 -6.125 6.875 C-6.13015625 6.0809375 -6.1353125 5.286875 -6.140625 4.46875 C-5.62336452 0.39152031 -3.86413012 0.37394808 0 0 Z " fill="#1F2021" transform="translate(377.875,71.625)"/>
<path d="M0 0 C2.4375 1.625 2.4375 1.625 4 4 C4.5625 7 4.5625 7 4 10 C1.9375 12.4375 1.9375 12.4375 -1 14 C-7.21052632 13.78947368 -7.21052632 13.78947368 -10 11 C-10.55239643 4.03980504 -10.55239643 4.03980504 -8.9375 1 C-5.82090489 -0.60856522 -3.43737531 -0.42213381 0 0 Z " fill="#1E1F1F" transform="translate(257,161)"/>
<path d="M0 0 C2 1.0625 2 1.0625 3 3 C3.50030235 6.93094707 3.5996142 9.1005787 1.375 12.4375 C-1.71685231 14.47161336 -3.36367425 14.60605429 -7 14 C-9.375 12.4375 -9.375 12.4375 -11 10 C-11.42213381 6.56262469 -11.60856522 4.17909511 -10 1.0625 C-6.75978228 -0.65886567 -3.58042244 -0.52960415 0 0 Z " fill="#202121" transform="translate(329,124)"/>
<path d="M0 0 C2.62581536 2.28700048 2.95141434 3.60321707 3.375 7.0625 C3 10 3 10 2 11.875 C-1.22530068 13.68923163 -4.39510861 13.52571333 -8 13 C-10 12 -10 12 -11 10 C-11.45446313 7.23870504 -11.50436498 4.75681313 -11 2 C-7.95184114 -2.0235697 -4.53799409 -1.23763475 0 0 Z " fill="#1E1E1F" transform="translate(383,107)"/>
<path d="M0 0 C2.375 1.625 2.375 1.625 4 4 C4.61195145 7.6717087 4.48706506 9.28813568 2.375 12.375 C-0.71186432 14.48706506 -2.3282913 14.61195145 -6 14 C-8.375 12.375 -8.375 12.375 -10 10 C-10.61195145 6.3282913 -10.48706506 4.71186432 -8.375 1.625 C-5.28813568 -0.48706506 -3.6717087 -0.61195145 0 0 Z " fill="#1E1F1F" transform="translate(346,106)"/>
<path d="M0 0 C2.50041894 0.08168338 3.83455801 0.19140582 6.0625 1.375 C7.67106522 4.49159511 7.48463381 6.87512469 7.0625 10.3125 C5.4375 12.75 5.4375 12.75 3.0625 14.3125 C0.0625 14.875 0.0625 14.875 -2.9375 14.3125 C-5.375 12.25 -5.375 12.25 -6.9375 9.3125 C-6.73458297 3.3264476 -6.40780043 0.50855559 0 0 Z " fill="#1E1F1F" transform="translate(306.9375,105.6875)"/>
<path d="M0 0 C2.5 1.5625 2.5 1.5625 4 4 C3.93913078 7.46954545 3.6274029 9.91947278 1.875 12.9375 C-1.13913252 14.64550843 -3.62088399 14.36204814 -7 14 C-8.9375 13 -8.9375 13 -10 11 C-10.52960415 7.41957756 -10.65886567 4.24021772 -8.9375 1 C-5.82090489 -0.60856522 -3.43737531 -0.42213381 0 0 Z " fill="#1E1F1F" transform="translate(364,53)"/>
<path d="M0 0 C2.0625 1.5625 2.0625 1.5625 3 4 C2.93439072 7.739729 2.76345433 10.0603639 0.375 13 C-3.07663304 14.45331917 -5.42809484 13.92604949 -9 13 C-11.46324069 9.30513897 -11.38991688 7.36706908 -11 3 C-8.85023976 -1.16516046 -4.12934638 -0.75547293 0 0 Z " fill="#1E1F1F" transform="translate(294,196)"/>
<path d="M0 0 C4.91511194 1.34048507 4.91511194 1.34048507 6.4375 3.9375 C6.85366519 7.19746064 6.7141188 9.28053035 5.4375 12.3125 C2.73205964 14.5106703 0.7287076 14.5087063 -2.6875 14.3203125 C-4.5625 13.9375 -4.5625 13.9375 -6.5625 12.3125 C-7.85868989 9.234049 -8.04538863 7.24873632 -7.5625 3.9375 C-5.26874134 0.3592365 -4.28872478 -0.07524079 0 0 Z " fill="#1E1F20" transform="translate(272.5625,178.0625)"/>
<path d="M0 0 C2.375 1.5625 2.375 1.5625 4 4 C4.5 7.5625 4.5 7.5625 4 11 C1.79803976 13.62541413 0.38026421 13.9445448 -3 14.4375 C-6 14 -6 14 -8.375 12.375 C-10.48706506 9.28813568 -10.61195145 7.6717087 -10 4 C-7.21921757 -0.06422047 -4.81255755 -0.80209293 0 0 Z " fill="#1F1F20" transform="translate(382,178)"/>
<path d="M0 0 C3.4375 0.9375 3.4375 0.9375 5.375 2.0625 C7.10315297 5.11218171 6.86435201 7.52268389 6.4375 10.9375 C4.22524156 13.57519276 2.84364032 13.88673246 -0.5625 14.3125 C-3.96864032 13.88673246 -5.35024156 13.57519276 -7.5625 10.9375 C-8.13599318 6.9947344 -8.1289946 4.84389136 -6 1.4375 C-3.5625 -0.0625 -3.5625 -0.0625 0 0 Z " fill="#1E1F20" transform="translate(253.5625,125.0625)"/>
<path d="M0 0 C3.4375 0.9375 3.4375 0.9375 5.375 2.0625 C7.08300843 5.07663252 6.79954814 7.55838399 6.4375 10.9375 C5.375 12.875 5.375 12.875 3.4375 13.9375 C-0.16634106 14.3306463 -2.65991776 14.33093329 -6 12.875 C-7.5625 10.9375 -7.5625 10.9375 -8.0625 7.5 C-7.5625 3.9375 -7.5625 3.9375 -6 1.4375 C-3.5625 -0.0625 -3.5625 -0.0625 0 0 Z " fill="#1F1F20" transform="translate(396.5625,123.0625)"/>
<path d="M0 0 C2 1.0625 2 1.0625 3 3 C3.49891602 6.92005446 3.55253414 9.11594538 1.4375 12.5 C-1 14 -1 14 -4.5625 13.9375 C-8 13 -8 13 -9.9375 11.875 C-11.64550843 8.86086748 -11.36204814 6.37911601 -11 3 C-8.82986072 -1.20464485 -4.15736573 -0.61494368 0 0 Z " fill="#1F1F20" transform="translate(257,90)"/>
<path d="M0 0 C1.9375 1 1.9375 1 3 3 C3.46000079 5.76000474 3.50420748 8.24404774 3 11 C1.4375 13.0625 1.4375 13.0625 -1 14 C-4.78958606 13.93351603 -7.07857591 13.83225402 -9.9375 11.25 C-11.23370853 8.50508782 -11.52487013 6.99925788 -11 4 C-7.99829475 -0.44252378 -5.15110438 -0.6555951 0 0 Z " fill="#1F1F20" transform="translate(311,142)"/>
<path d="M0 0 C1.9375 1.0625 1.9375 1.0625 3 3 C3.49891602 6.92005446 3.55253414 9.11594538 1.4375 12.5 C-1 14 -1 14 -4.5625 13.9375 C-9.47761194 12.59701493 -9.47761194 12.59701493 -11 10 C-11.53520313 6.40649325 -11.44814771 4.68118452 -9.4375 1.625 C-6.1005787 -0.5996142 -3.93094707 -0.50030235 0 0 Z " fill="#1E1F20" transform="translate(293,124)"/>
<path d="M0 0 C2.3125 1.5625 2.3125 1.5625 4 4 C4.42213381 7.43737531 4.60856522 9.82090489 3 12.9375 C-0.24104443 14.65930485 -3.42422767 14.66300779 -7 14 C-9.68060724 11.82200662 -9.93500217 10.38998695 -10.5 7 C-10 4 -10 4 -7.8125 1.625 C-4.75367423 -0.14232156 -3.44653179 -0.70698088 0 0 Z " fill="#1F2020" transform="translate(311,35)"/>
<path d="M0 0 C2.34572071 2.11871548 2.89543972 3.4025127 3.4375 6.5 C3 9 3 9 1.4375 11.3125 C-1.89345318 13.61854451 -4.0324729 13.504958 -8 13 C-9.9375 12 -9.9375 12 -11 10 C-11.46000079 7.23999526 -11.50420748 4.75595226 -11 2 C-7.95184114 -2.0235697 -4.53799409 -1.23763475 0 0 Z " fill="#1F1F20" transform="translate(383,143)"/>
<path d="M0 0 C2.4375 1.625 2.4375 1.625 4 4 C4.5625 7 4.5625 7 4 10 C1.57904909 12.62846098 -0.04614692 13.81388233 -3.5625 14.5 C-6.9249123 13.8102744 -8.0486167 12.81866476 -10 10 C-10.42519574 6.53769185 -10.63902633 4.1652833 -8.9375 1.0625 C-5.8347167 -0.63902633 -3.46230815 -0.42519574 0 0 Z " fill="#1E1E1F" transform="translate(346,142)"/>
<path d="M0 0 C1.9375 1.1875 1.9375 1.1875 3 3 C3.54068562 6.63031776 3.46379841 8.32214079 1.375 11.375 C-1.69477548 13.4753727 -3.34556561 13.53293835 -7 13 C-9.375 12 -9.375 12 -11 10 C-11.56669256 7.22436297 -11.559876 4.77629231 -11 2 C-7.94260267 -2.03576448 -4.55750868 -1.16009312 0 0 Z " fill="#1E1F20" transform="translate(276,143)"/>
<path d="M0 0 C2.34572071 2.11871548 2.89543972 3.4025127 3.4375 6.5 C3 9 3 9 1.4375 11.3125 C-1.89345318 13.61854451 -4.0324729 13.504958 -8 13 C-9.9375 12 -9.9375 12 -11 10 C-11.46000079 7.23999526 -11.50420748 4.75595226 -11 2 C-7.95184114 -2.0235697 -4.53799409 -1.23763475 0 0 Z " fill="#1E1E1F" transform="translate(365,125)"/>
<path d="M0 0 C2.375 1.5625 2.375 1.5625 4 4 C4.5 7.5625 4.5 7.5625 4 11 C1.80827201 13.61321414 0.35345908 13.94109015 -3 14.5 C-6 14 -6 14 -8.375 11.8125 C-10.14232156 8.75367423 -10.70698088 7.44653179 -10 4 C-7.16979976 -0.02759265 -4.82432618 -0.80405436 0 0 Z " fill="#1E1F20" transform="translate(328,160)"/>
<path d="M0 0 C2.5 1.5625 2.5 1.5625 4 4 C4 7.82389746 3.85254277 10.05611336 1.25 12.9375 C-1.49491218 14.23370853 -3.00074212 14.52487013 -6 14 C-8.3125 12.4375 -8.3125 12.4375 -10 10 C-10.42519574 6.53769185 -10.63902633 4.1652833 -8.9375 1.0625 C-5.8347167 -0.63902633 -3.46230815 -0.42519574 0 0 Z " fill="#1F1F20" transform="translate(400,160)"/>
<path d="M0 0 C1.9375 1.1875 1.9375 1.1875 3 3 C3.54068562 6.63031776 3.46379841 8.32214079 1.375 11.375 C-1.71186432 13.48706506 -3.3282913 13.61195145 -7 13 C-9.375 11.4375 -9.375 11.4375 -11 9 C-11.5 5.4375 -11.5 5.4375 -11 2 C-7.88297247 -1.98979524 -4.57145176 -1.16364227 0 0 Z " fill="#1E1F20" transform="translate(365,161)"/>
<path d="M0 0 C0.99 0.66 1.98 1.32 3 2 C3.64608076 8.78384798 3.64608076 8.78384798 1.9375 12 C-1.17909511 13.60856522 -3.56262469 13.42213381 -7 13 C-9.5 11.4375 -9.5 11.4375 -11 9 C-11 5.18846501 -10.80074051 2.94902579 -8.3125 0 C-5.15411416 -1.36578847 -3.27700161 -0.9064047 0 0 Z " fill="#1F1F20" transform="translate(311,71)"/>
<path d="M0 0 C2.0625 1.5625 2.0625 1.5625 3 4 C2.67272727 10.32727273 2.67272727 10.32727273 0 13 C-6.96019496 13.55239643 -6.96019496 13.55239643 -10 11.9375 C-11.58433618 8.86784865 -11.36248449 6.38318857 -11 3 C-8.85023976 -1.16516046 -4.12934638 -0.75547293 0 0 Z " fill="#1E1E1F" transform="translate(312,178)"/>
<path d="M0 0 C1.9375 1 1.9375 1 3 3 C3.46000079 5.76000474 3.50420748 8.24404774 3 11 C1.4375 13.0625 1.4375 13.0625 -1 14 C-7.32727273 13.67272727 -7.32727273 13.67272727 -10 11 C-10.55239643 4.03980504 -10.55239643 4.03980504 -8.9375 1 C-5.86784865 -0.58433618 -3.38318857 -0.36248449 0 0 Z " fill="#1E1E1F" transform="translate(293,160)"/>
<path d="M0 0 C1.9375 1.0625 1.9375 1.0625 3 3 C3.36528977 6.4093712 3.6140629 8.88023824 1.9375 11.9375 C-1.1652833 13.63902633 -3.53769185 13.42519574 -7 13 C-9.5 11.4375 -9.5 11.4375 -11 9 C-10.9375 5.375 -10.9375 5.375 -10 2 C-6.30513897 -0.46324069 -4.36706908 -0.38991688 0 0 Z " fill="#1E1F20" transform="translate(347,178)"/>
<path d="M0 0 C0.33 0 0.66 0 1 0 C1.02915731 4.04165139 1.04685173 8.0832755 1.0625 12.125 C1.07087891 13.26710938 1.07925781 14.40921875 1.08789062 15.5859375 C1.09111328 16.69453125 1.09433594 17.803125 1.09765625 18.9453125 C1.10289307 19.96125488 1.10812988 20.97719727 1.11352539 22.02392578 C0.99652309 25.09114726 0.56776417 27.98633134 0 31 C-0.99 31.33 -1.98 31.66 -3 32 C-4.63863187 21.34889283 -5.64453705 9.67634923 0 0 Z " fill="#F3F2EF" transform="translate(481,270)"/>
<path d="M0 0 C7.26 0 14.52 0 22 0 C22 2.31 22 4.62 22 7 C14.26534904 5.86299135 7.26030749 3.89288848 0 1 C0 0.67 0 0.34 0 0 Z " fill="#383C40" transform="translate(412,229)"/>
<path d="M0 0 C6.93 0 13.86 0 21 0 C17.24064599 2.8195155 14.90033627 3.87042687 10.5 5.1875 C9.3759375 5.53167969 8.251875 5.87585938 7.09375 6.23046875 C4 7 4 7 0 7 C0 4.69 0 2.38 0 0 Z " fill="#3D4347" transform="translate(234,229)"/>
<path d="M0 0 C0.33 0 0.66 0 1 0 C1.34029508 3.47852168 1.6709387 6.95789909 2 10.4375 C2.09539062 11.41138672 2.19078125 12.38527344 2.2890625 13.38867188 C2.84174098 19.29048849 3.09807559 25.07255678 3 31 C0.54330399 28.54330399 -0.06709106 26.46783087 -1.1875 23.1875 C-1.55230469 22.14980469 -1.91710937 21.11210937 -2.29296875 20.04296875 C-3.05001783 16.78472989 -2.86309234 15.1845131 -2 12 C-1.63851898 9.89707754 -1.28453644 7.79285439 -0.9375 5.6875 C-0.76089844 4.61886719 -0.58429688 3.55023438 -0.40234375 2.44921875 C-0.26957031 1.64097656 -0.13679687 0.83273437 0 0 Z " fill="#D2D1D0" transform="translate(191,294)"/>
<path d="M0 0 C2.64 1.98 5.28 3.96 8 6 C6.7934375 6.9590625 6.7934375 6.9590625 5.5625 7.9375 C3.7249496 9.40603502 3.7249496 9.40603502 2 11 C1.92851801 12.35243917 1.91600546 13.70834367 1.9375 15.0625 C1.958125 16.361875 1.97875 17.66125 2 19 C1.34 19 0.68 19 0 19 C-0.33 19.66 -0.66 20.32 -1 21 C-1.02888146 17.68751813 -1.04675799 14.37506833 -1.0625 11.0625 C-1.07087891 10.11697266 -1.07925781 9.17144531 -1.08789062 8.19726562 C-1.09111328 7.29814453 -1.09433594 6.39902344 -1.09765625 5.47265625 C-1.10289307 4.64000244 -1.10812988 3.80734863 -1.11352539 2.94946289 C-1 1 -1 1 0 0 Z " fill="#53585E" transform="translate(388,46)"/>
<path d="M0 0 C1.27018011 2.54036022 0.71920986 3.32079659 0 6 C-0.06926968 8.75970408 -0.0941736 11.49196042 -0.0625 14.25 C-0.05798828 14.99507813 -0.05347656 15.74015625 -0.04882812 16.5078125 C-0.03709246 18.3385764 -0.0191585 20.16929873 0 22 C-0.99 21.67 -1.98 21.34 -3 21 C-4.3142324 13.32772439 -4.04222923 6.92953583 0 0 Z " fill="#EAEAE6" transform="translate(481,270)"/>
<path d="M0 0 C0.33 0 0.66 0 1 0 C1.21755666 5.4389165 1.10428384 9.87080814 -1 15 C-2.90608098 11.78817851 -3.22266247 9.46117397 -3.125 5.75 C-3.09792969 4.41195313 -3.09792969 4.41195313 -3.0703125 3.046875 C-3.04710937 2.37140625 -3.02390625 1.6959375 -3 1 C-2.01 1.33 -1.02 1.66 0 2 C0 1.34 0 0.68 0 0 Z " fill="#D8D8D6" transform="translate(189,292)"/>
<path d="M0 0 C0.33 0 0.66 0 1 0 C1.05413245 2.89608593 1.09373641 5.79115195 1.125 8.6875 C1.14175781 9.50412109 1.15851563 10.32074219 1.17578125 11.16210938 C1.2114802 15.57092929 1.07580814 18.98731576 -1 23 C-2.19126781 19.42619658 -1.7349445 17.49116698 -1.0625 13.8125 C-0.86785156 12.72582031 -0.67320312 11.63914062 -0.47265625 10.51953125 C-0.31667969 9.68808594 -0.16070312 8.85664063 0 8 C-0.99 7.67 -1.98 7.34 -3 7 C-2.67 6.01 -2.34 5.02 -2 4 C-1.34 4 -0.68 4 0 4 C0 2.68 0 1.36 0 0 Z " fill="#E7E7E5" transform="translate(190,284)"/>
<path d="M0 0 C-0.66 1.32 -1.32 2.64 -2 4 C-5.3 4 -8.6 4 -12 4 C-11.67 3.01 -11.34 2.02 -11 1 C-7.26562152 0.12132271 -3.83225427 -0.08912219 0 0 Z " fill="#8C8F93" transform="translate(239,274)"/>
<path d="M0 0 C0.33 0 0.66 0 1 0 C1.77040851 6.06696699 2.09706112 11.88514973 2 18 C-0.65444945 15.34555055 -1.57500263 12.66046125 -2 9 C-1.59845254 5.91494028 -0.87892236 2.98157509 0 0 Z " fill="#BBBBB9" transform="translate(192,307)"/>
<path d="M0 0 C0.33 0 0.66 0 1 0 C1 1.65 1 3.3 1 5 C1.66 5 2.32 5 3 5 C3 8.63 3 12.26 3 16 C2.34 16 1.68 16 1 16 C0.67 16.66 0.34 17.32 0 18 C0 12.06 0 6.12 0 0 Z " fill="#52575D" transform="translate(387,120)"/>
<path d="M0 0 C0.33 0.66 0.66 1.32 1 2 C-0.134375 2.309375 -1.26875 2.61875 -2.4375 2.9375 C-5.78775099 3.62924531 -5.78775099 3.62924531 -7 5 C-7.04092937 7.33297433 -7.04241723 9.66705225 -7 12 C-7.66 11.67 -8.32 11.34 -9 11 C-9.48676056 3.57690141 -9.48676056 3.57690141 -7.3125 1 C-4.6880612 -0.13489245 -2.83089822 -0.23590819 0 0 Z " fill="#19191A" transform="translate(274,106)"/>
<path d="M0 0 C2.31841519 2.31841519 2.41740489 3.20370322 2.8125 6.375 C2.92207031 7.14585938 3.03164063 7.91671875 3.14453125 8.7109375 C3 11 3 11 0 15 C0 10.05 0 5.1 0 0 Z " fill="#51565C" transform="translate(387,89)"/>
<path d="M0 0 C3.14737182 0.69941596 6.02588876 1.76078698 9 3 C8.67 3.66 8.34 4.32 8 5 C7.34 5 6.68 5 6 5 C5.67 5.66 5.34 6.32 5 7 C0 1.125 0 1.125 0 0 Z " fill="#D8D8D7" transform="translate(227,366)"/>
<path d="M0 0 C-1.08203125 1.48828125 -1.08203125 1.48828125 -3 3 C-6.13671875 3.29296875 -6.13671875 3.29296875 -9.6875 3.1875 C-11.45673828 3.14689453 -11.45673828 3.14689453 -13.26171875 3.10546875 C-14.16535156 3.07066406 -15.06898438 3.03585937 -16 3 C-10.76611391 0.23704726 -5.87728208 -0.13993529 0 0 Z " fill="#888B8F" transform="translate(443,300)"/>
<path d="M0 0 C0 3.96130371 -1.34877125 4.82914401 -4 7.6875 C-4.7425 8.49574219 -5.485 9.30398437 -6.25 10.13671875 C-6.8275 10.75160156 -7.405 11.36648437 -8 12 C-8.66 11.67 -9.32 11.34 -10 11 C-6.7 7.37 -3.4 3.74 0 0 Z " fill="#313232" transform="translate(253,39)"/>
<path d="M0 0 C4.62 0 9.24 0 14 0 C14.33 0.66 14.66 1.32 15 2 C11.30025941 3.18391699 7.86200562 3.27585754 4 3 C2.68 2.01 1.36 1.02 0 0 Z " fill="#9B9DA0" transform="translate(423,302)"/>
<path d="M0 0 C0.33 0 0.66 0 1 0 C1.12375 0.969375 1.2475 1.93875 1.375 2.9375 C1.58125 3.948125 1.7875 4.95875 2 6 C2.66 6.33 3.32 6.66 4 7 C3.01 9.31 2.02 11.62 1 14 C0.67 14 0.34 14 0 14 C0 9.38 0 4.76 0 0 Z " fill="#C4C4C3" transform="translate(474,310)"/>
<path d="M0 0 C0.66 0 1.32 0 2 0 C1.67 3.3 1.34 6.6 1 10 C0.34 10 -0.32 10 -1 10 C-1 10.99 -1 11.98 -1 13 C-1.66 13 -2.32 13 -3 13 C-2.01 8.71 -1.02 4.42 0 0 Z " fill="#E0E0DE" transform="translate(498,309)"/>
<path d="M0 0 C0 0.33 0 0.66 0 1 C-0.9075 1.226875 -1.815 1.45375 -2.75 1.6875 C-6.44888324 3.18127977 -7.77905658 4.75400577 -10 8 C-10.21917317 5.29686424 -10.32851983 3.56041618 -8.9375 1.1875 C-6.00731249 -0.60842137 -3.3527047 -0.18977574 0 0 Z " fill="#181818" transform="translate(328,124)"/>
<path d="M0 0 C0.66 0 1.32 0 2 0 C1.67 2.97 1.34 5.94 1 9 C-1 7 -1 7 -1.1875 3.9375 C-1 1 -1 1 0 0 Z " fill="#F2F2F0" transform="translate(190,307)"/>
<path d="M0 0 C0.33 0 0.66 0 1 0 C1.06058594 0.97582031 1.12117187 1.95164062 1.18359375 2.95703125 C1.26738281 4.22933594 1.35117188 5.50164062 1.4375 6.8125 C1.51871094 8.07707031 1.59992188 9.34164063 1.68359375 10.64453125 C1.87184547 13.99181893 1.87184547 13.99181893 3 17 C2.01 16.67 1.02 16.34 0 16 C0 10.72 0 5.44 0 0 Z " fill="#F6F6F3" transform="translate(186,277)"/>
<path d="M0 0 C3.96 0 7.92 0 12 0 C12 0.33 12 0.66 12 1 C10.56853622 1.41713515 9.12941114 1.8080497 7.6875 2.1875 C6.88699219 2.40792969 6.08648437 2.62835937 5.26171875 2.85546875 C4.14216797 2.92701172 4.14216797 2.92701172 3 3 C2.01 2.01 1.02 1.02 0 0 Z " fill="#4E555A" transform="translate(262,513)"/>
<path d="M0 0 C0 3 0 3 -2.5 5.6875 C-3.325 6.450625 -4.15 7.21375 -5 8 C-5.66 7.67 -6.32 7.34 -7 7 C-4.69 4.69 -2.38 2.38 0 0 Z " fill="#DADAD8" transform="translate(443,391)"/>
<path d="M0 0 C1.32 0 2.64 0 4 0 C4 1.32 4 2.64 4 4 C1.69 4 -0.62 4 -3 4 C-1.75 2 -1.75 2 0 0 Z " fill="#898D91" transform="translate(241,273)"/>
<path d="M0 0 C2.64 0.33 5.28 0.66 8 1 C8 1.66 8 2.32 8 3 C5.36 2.67 2.72 2.34 0 2 C0 1.34 0 0.68 0 0 Z " fill="#A0A3A6" transform="translate(395,270)"/>
<path d="M0 0 C0.66 0.33 1.32 0.66 2 1 C1.67 3.64 1.34 6.28 1 9 C-1 7 -1 7 -1.1875 3.9375 C-1 1 -1 1 0 0 Z " fill="#E4E4E2" transform="translate(220,94)"/>
<path d="M0 0 C0.66 0.33 1.32 0.66 2 1 C2 2.65 2 4.3 2 6 C-0.64 5.34 -3.28 4.68 -6 4 C-5.38125 3.71125 -4.7625 3.4225 -4.125 3.125 C-1.86674235 2.06279958 -1.86674235 2.06279958 0 0 Z " fill="#575C60" transform="translate(347,31)"/>
</svg>
